<svg width="64" height="64" viewBox="0 0 64 64" xmlns="http://www.w3.org/2000/svg">
  <defs>
    <linearGradient id="silverGradient" x1="0%" y1="0%" x2="0%" y2="100%">
      <stop offset="0%" stop-color="#f8fbff"/>
      <stop offset="100%" stop-color="#b7c0d4"/>
    </linearGradient>
    <linearGradient id="goldGradient" x1="0%" y1="0%" x2="0%" y2="100%">
      <stop offset="0%" stop-color="#ffe9a3"/>
      <stop offset="100%" stop-color="#d7951a"/>
    </linearGradient>
  </defs>
  <path fill="url(#silverGradient)"
        d="M18 6h7v22.5c0 3.9-3.2 7-7.1 7-3.9 0-7.1-3.1-7.1-7s3.2-7 7.1-7c1.4 0 2.8.4 4 1.1V6z"/>
  <circle fill="url(#silverGradient)" cx="17.9" cy="35.5" r="7.1"/>
  <path fill="url(#goldGradient)"
        d="M38 12h7v22.5c0 3.9-3.2 7-7.1 7-3.9 0-7.1-3.1-7.1-7s3.2-7 7.1-7c1.4 0 2.8.4 4 1.1V12z"/>
  <circle fill="url(#goldGradient)" cx="37.9" cy="41.5" r="7.1"/>
</svg>